<svg width="31" height="31" viewBox="0 0 31 31" fill="none" xmlns="http://www.w3.org/2000/svg">
<path d="M2.81818 0C1.26114 0 0 1.26114 0 2.81818V28.1818C0 29.7389 1.26114 31 2.81818 31H28.1818C29.7389 31 31 29.7389 31 28.1818V2.81818C31 1.26114 29.7389 0 28.1818 0H2.81818ZM19.0227 9.86364H22.6253C23.0142 9.86364 23.3298 10.1793 23.3298 10.5682C23.3298 10.9571 23.0142 11.2727 22.6253 11.2727H19.0227C18.6338 11.2727 18.3182 10.9571 18.3182 10.5682C18.3182 10.1793 18.6338 9.86364 19.0227 9.86364ZM6.93262 10.4058H10.8572C13.1737 10.4058 14.556 11.5391 14.556 13.3836C14.556 14.649 13.6201 15.7531 12.3956 15.9348V16.0835C13.9766 16.199 15.1257 17.3904 15.1257 18.9292C15.1271 21.0217 13.5466 22.3473 10.9975 22.3473H6.93262C6.2168 22.3473 5.63636 21.7669 5.63636 21.051V11.7021C5.63636 10.9862 6.2168 10.4058 6.93262 10.4058ZM8.1353 12.3158V15.3541H10.0123C11.3622 15.3555 12.0984 14.8001 12.0984 13.8405C12.0984 12.8893 11.4135 12.3158 10.2214 12.3158H8.1353ZM21.0841 13.0203C23.774 13.0203 25.3609 14.7345 25.3609 17.6301V18.365H19.0998V18.4888C19.1322 19.8458 19.9276 20.6905 21.1859 20.6905C22.137 20.6905 22.7899 20.3524 23.0463 19.7493H25.2893C24.9258 21.4712 23.3519 22.5455 21.1171 22.5455C18.337 22.5455 16.6999 20.7902 16.6999 17.8283C16.6999 14.8579 18.3702 13.0203 21.0841 13.0203ZM21.0951 14.867C19.9777 14.867 19.1898 15.6429 19.108 16.8265H22.9968C22.9461 15.6189 22.2195 14.867 21.0951 14.867ZM8.1353 17.0439V20.4373H10.3618C11.8019 20.4373 12.58 19.8305 12.58 18.7145C12.58 17.621 11.7765 17.0439 10.304 17.0439H8.1353Z" fill="#DEDEDE"/>
</svg>
