<svg width="31" height="31" viewBox="0 0 31 31" fill="none" xmlns="http://www.w3.org/2000/svg">
<path d="M0.909783 15.7468L0.803949 15.696C0.570921 15.564 0.389352 15.3703 0.263128 15.12C0.0805891 14.7836 0 14.4677 0 14.1421L0.0252448 13.9739C0.0252448 13.7138 0.0912696 13.4801 0.207784 13.2561L0.313618 13.0625C0.364108 12.9559 0.439842 12.864 0.505867 12.777C0.586456 12.6851 0.597136 12.5677 0.571891 12.4611L0.505867 12.2518C0.430132 11.9917 0.379643 11.7326 0.379643 11.4725L0.338863 11.315C0.338863 11.0246 0.414597 10.739 0.597136 10.5308L0.728215 10.3626C0.819485 10.2305 0.961244 10.1533 1.11757 10.1024C1.24379 10.0614 1.33506 9.92935 1.3506 9.7768L1.37584 9.33381C1.37584 8.98275 1.54284 8.65613 1.80112 8.41655L2.11474 8.18186C2.17591 8.12025 2.24096 8.05473 2.29145 7.94716C2.35747 7.87089 2.37204 7.76332 2.35747 7.68704C2.33223 7.55992 2.35747 7.51884 2.4235 7.5032C2.63128 7.58436 2.76236 7.55894 2.85363 7.45235L3.02064 7.2333L3.48572 6.70915C3.6168 6.58202 3.66826 6.34244 3.5867 6.16446L3.43523 5.82318C3.40999 5.7469 3.43523 5.65498 3.50126 5.62956C3.66826 5.62956 3.78478 5.69116 3.83527 5.79775L3.88576 5.88968C3.96634 6.04712 4.14888 6.12437 4.27511 6.05787C4.55863 5.95617 4.79554 5.93075 5.01303 5.93075H5.42763C5.71115 5.93075 5.94321 5.73223 5.99952 5.43202C6.05001 5.0702 6.17623 4.77977 6.35877 4.58614C6.55588 4.36221 6.77337 4.19401 7.03164 4.06199C7.37051 3.88402 7.57829 3.61901 7.64334 3.28261C7.73461 2.86505 7.95211 2.56484 8.25019 2.37122L9.23668 1.81089L9.5202 1.6378C9.6872 1.5361 9.84352 1.4031 9.97557 1.24566L10.2338 0.934694C10.3601 0.802678 10.4921 0.715646 10.6484 0.674574C10.7747 0.633503 10.9572 0.608078 11.1135 0.623724L11.6291 0.658928C11.8874 0.658928 12.0942 0.725425 12.302 0.816369L12.4331 0.882866C12.5641 0.933716 12.6913 0.908291 12.7564 0.816369L12.8729 0.749872L13.4293 0.164115C13.5603 0.0320991 13.7128 -0.0197292 13.8846 0.00667392C14.0516 0.0320991 14.2186 0.0985958 14.375 0.179761C14.608 0.306887 14.8002 0.357737 15.0226 0.357737H15.1537C15.4372 0.357737 15.7197 0.398809 16.0081 0.464328L16.2004 0.515178C16.3926 0.566028 16.5897 0.489753 16.7159 0.331334C16.7567 0.264838 16.847 0.255059 16.8985 0.305909C16.9393 0.331334 16.949 0.356759 16.9645 0.397831C16.9897 0.65795 17.147 0.856462 17.3538 0.917092L17.5616 0.983589C17.7791 1.05009 17.9762 1.19286 18.1025 1.37572C18.2335 1.56935 18.3908 1.76786 18.5675 1.89498L18.6986 2.027C18.8297 2.15902 19.0074 2.21084 19.1889 2.1952H19.9521C20.2657 2.1952 20.5638 2.25094 20.8629 2.37904C21.1464 2.51106 21.4445 2.53648 21.7125 2.42989C22.0008 2.34286 22.2989 2.30277 22.597 2.34286L23.1534 2.42989C23.4116 2.46021 23.6689 2.58733 23.8262 2.78682L23.8923 2.84843C24.0185 2.98045 24.1505 3.14864 24.2767 3.33249C24.3573 3.50068 24.5399 3.59261 24.7166 3.59261H25.5205C25.7176 3.59261 25.9099 3.63368 26.0672 3.72462C26.2342 3.85175 26.3759 3.98474 26.507 4.11676L26.6333 4.28495C26.7896 4.4688 26.8663 4.71327 26.8556 4.9773C26.8556 5.18657 27.0119 5.36455 27.2149 5.36455L27.478 5.39486C27.6605 5.39486 27.812 5.52199 27.9033 5.69019L28.0343 5.95519L28.3683 6.70915C28.4237 6.84117 28.4344 6.96927 28.4237 7.07586C28.4237 7.20299 28.4586 7.31055 28.5499 7.3614L28.681 7.45333C28.848 7.58534 28.9393 7.77896 28.914 8.00388L28.8228 8.61506L28.7975 8.87518C28.7723 9.0072 28.8325 9.17539 28.9538 9.26732C29.1461 9.39444 29.2373 9.56753 29.2471 9.76115V10.0213C29.2471 10.1533 29.2218 10.3117 29.1208 10.4134C29.0402 10.52 28.9898 10.6481 28.9898 10.8055L29.0305 11.1058C29.0305 11.315 29.1568 11.4979 29.2888 11.625C29.4713 11.757 29.5723 11.9663 29.6024 12.1756C29.6529 12.5012 29.6636 12.7613 29.6636 13.0214V13.3217C29.6636 13.4282 29.6636 13.5309 29.7044 13.6326C29.7296 13.7246 29.7956 13.8165 29.8714 13.8722L30.1297 14.0658C30.3928 14.234 30.5744 14.458 30.6763 14.7582C30.8074 15.0437 30.8433 15.3439 30.8433 15.6442V15.7459C30.8433 15.9805 30.8181 16.2299 30.7423 16.449C30.6763 16.6885 30.6918 16.9076 30.7773 17.1012C30.8831 17.2851 30.9491 17.4933 30.9744 17.7173C31.0249 17.9774 30.9996 18.2365 30.9084 18.4458L30.8831 18.5377C30.8171 18.6952 30.7161 18.8379 30.585 18.9553C30.454 19.0873 30.3268 19.1646 30.251 19.2555C30.1704 19.3318 30.1199 19.4648 30.1598 19.5811L30.1947 19.765C30.2607 20.0251 30.2607 20.2843 30.1947 20.5189V20.6255C30.1442 20.8192 30.0685 20.9874 29.9869 21.1448C29.8957 21.313 29.7694 21.445 29.6024 21.5369L29.4053 21.6641C29.3141 21.7198 29.249 21.8371 29.249 21.9545C29.249 22.0816 29.1985 22.2146 29.1228 22.2909L28.9257 22.5559C28.7994 22.7241 28.6324 22.8669 28.4499 22.9431C28.2674 23.0752 28.111 23.2082 27.9945 23.3353C27.8634 23.4927 27.7615 23.6766 27.711 23.8594C27.6605 24.0941 27.478 24.2212 27.2809 24.2212H26.5828C26.4002 24.2212 26.2342 24.3533 26.1575 24.5117C26.0662 24.7151 25.9749 24.8627 25.8594 24.9908C25.7283 25.1229 25.6516 25.2813 25.5963 25.4593C25.571 25.6167 25.4448 25.7243 25.3128 25.6685C25.1458 25.5923 24.9787 25.6685 24.8982 25.8005C24.7467 26.0607 24.5894 26.2592 24.4224 26.4274L24.3311 26.5037C24.1593 26.6357 23.9418 26.7383 23.7447 26.7383C23.5116 26.7383 23.3961 26.8449 23.3602 26.9985C23.3194 27.1305 23.2941 27.2987 23.2796 27.4463C23.2543 27.5989 23.2038 27.7417 23.1534 27.8747L23.0873 27.9509C22.9562 28.1494 22.8543 28.3431 22.7232 28.5113L22.6727 28.5924C22.5057 28.8115 22.2834 28.9846 22.0251 29.0462C21.7115 29.1528 21.4435 29.1782 21.1707 29.1782H20.9881C20.8619 29.1782 20.7299 29.2545 20.6396 29.3875L20.5638 29.5195L20.4832 29.672L20.3162 29.9625C20.1851 30.1971 19.9929 30.3497 19.7346 30.4309C19.4764 30.4974 19.1783 30.5228 18.9054 30.5071L18.6976 30.4817C18.5151 30.4817 18.3491 30.4309 18.1821 30.3497C18.051 30.2988 17.8685 30.3497 17.7927 30.4817C17.6616 30.6656 17.5043 30.7673 17.3373 30.823L16.948 30.9501C16.6897 31.0166 16.4072 31.0166 16.1334 30.9501L15.9256 30.8836C15.7994 30.8836 15.6673 30.822 15.5615 30.7565C15.4352 30.69 15.3032 30.6646 15.177 30.6753L15.0051 30.7057C14.7468 30.7311 14.5148 30.7057 14.2818 30.6392L13.9332 30.558C13.7769 30.5071 13.6351 30.4054 13.5438 30.2578C13.4778 30.1307 13.336 30.0231 13.1545 29.9977H12.7399C12.4816 29.9625 12.2495 29.8705 12.0923 29.672L11.5767 29.1782L11.3941 29.0207L11.1106 28.8115L10.9436 28.6843C10.7465 28.5523 10.5135 28.4497 10.2659 28.4242L9.49204 28.2922C9.41145 28.2922 9.36096 28.2668 9.28426 28.2511L8.98617 28.1846C8.85509 28.1592 8.7279 28.0575 8.6376 27.9245C8.56187 27.7974 8.41525 27.7407 8.28903 27.7974C8.03076 27.8991 7.82394 27.9245 7.61616 27.9656H7.43362C7.09476 27.991 6.78599 27.9402 6.47237 27.7974C6.16361 27.6654 5.9568 27.4718 5.76455 27.2214C5.60823 26.9975 5.3752 26.8293 5.08682 26.7784L4.72757 26.7022C4.4693 26.6464 4.20714 26.5447 3.97411 26.3863C3.71584 26.2025 3.58476 26.0352 3.48378 25.826C3.3828 25.6323 3.31678 25.4084 3.30124 25.1737V25.072C3.276 24.807 3.09346 24.5733 2.85072 24.5117C2.55264 24.4198 2.33029 24.2877 2.13804 24.1195C1.9555 23.9465 1.84967 23.702 1.84967 23.4419L1.87977 22.8659C1.87977 22.642 1.81374 22.4483 1.65742 22.3056C1.50109 22.1481 1.39914 21.9545 1.39914 21.7452L1.35836 21.2768C1.33312 20.9355 1.26709 20.5991 1.19136 20.2578C1.11563 19.9576 1.23214 19.6564 1.47488 19.5147L1.56615 19.4482C1.69723 19.3562 1.74869 19.188 1.67198 19.0306L1.56615 18.9035C1.43992 18.7715 1.30787 18.6795 1.1768 18.6434C1.07582 18.613 1.05057 18.5113 1.05057 18.4448L1.1768 18.2874C1.25738 18.1955 1.24282 18.0527 1.1768 17.9764C1.07582 17.8698 1.02533 17.7417 1.00979 17.6097L0.984547 16.6983C0.984547 16.5145 1.00979 16.3316 1.06028 16.1536C1.11563 15.9962 1.06028 15.8123 0.908812 15.7361L0.909783 15.7468ZM13.7244 14.0248C13.8157 13.9328 13.8002 13.7646 13.7244 13.6991C13.5933 13.5974 13.5021 13.4801 13.4263 13.3481L13.2953 13.1388C13.2088 12.9706 13.0933 12.8278 12.9613 12.6958L12.936 12.6704C12.8049 12.5687 12.7137 12.4357 12.6379 12.2782C12.5719 12.1511 12.5719 12.0181 12.6379 11.8861L12.7137 11.759C12.7943 11.627 12.8447 11.4431 12.8447 11.2906V11.2348C12.8447 11.1077 12.7943 10.9747 12.7137 10.8476C12.6632 10.741 12.6127 10.6129 12.5874 10.4809V10.4046C12.5467 10.2472 12.5874 10.079 12.6884 9.94597C12.7943 9.77777 12.871 9.62034 12.9108 9.42671V9.3964C12.9613 9.26927 12.936 9.10107 12.8554 8.96808C12.7797 8.83606 12.7544 8.70796 12.8049 8.55052L12.8962 8.2904C12.9719 8.05571 13.0933 7.84742 13.2448 7.66357L13.4273 7.46995L13.5584 7.31251L13.6341 7.23623C13.7099 7.15507 13.7254 7.02696 13.6594 6.92037C13.5933 6.78836 13.5584 6.66025 13.5836 6.52824L13.6089 6.3444C13.6497 6.08428 13.74 5.82513 13.907 5.61587L13.9575 5.56502C14.1497 5.3049 14.3973 5.13181 14.6808 5.04086L15.0352 4.91374C15.1867 4.86289 15.2935 4.6898 15.2935 4.5216C15.2935 4.31234 15.3595 4.12947 15.4751 3.96127L15.5362 3.89477C15.6673 3.67573 15.8246 3.45179 15.9256 3.2171L16.0168 3.0489C16.0421 3.00783 16.0576 2.95698 16.0576 2.91688C16.0576 2.69783 15.9265 2.49932 15.7188 2.48857L15.1527 2.44749C14.8294 2.42207 14.5051 2.44749 14.1915 2.44749L13.0943 2.57951C12.9224 2.57951 12.7962 2.70664 12.7807 2.89048C12.7807 3.07432 12.6496 3.23176 12.4971 3.28261L12.0321 3.40974L11.901 3.45081L11.5116 3.58283C11.2281 3.67475 10.996 3.88304 10.864 4.16858L10.763 4.33678C10.6319 4.62722 10.4144 4.86093 10.1406 5.02913C9.88236 5.19733 9.75128 5.47212 9.72604 5.78309V5.9151C9.70079 6.17522 9.6202 6.43436 9.46777 6.61821L9.40174 6.7248C9.29591 6.85192 9.27066 7.02501 9.33572 7.16778C9.40174 7.32033 9.44155 7.49342 9.42699 7.66162V8.35396C9.42699 8.53781 9.29591 8.69036 9.16871 8.74121C8.98617 8.80771 8.87063 8.95048 8.82014 9.13334L8.75412 9.39346C8.70363 9.65847 8.7949 9.91761 9.01239 10.076C9.22017 10.2286 9.35125 10.4633 9.40174 10.7537V10.9884C9.44252 11.2485 9.58428 11.5077 9.81634 11.6407C10.0494 11.7981 10.2309 12.0328 10.3319 12.2929L10.3979 12.5022C10.5038 12.7877 10.7368 12.9559 10.9951 12.9814H11.0708C11.3038 12.9814 11.5107 13.1134 11.6427 13.3226C11.7689 13.5319 11.9767 13.6737 12.2088 13.7148L12.5729 13.8165C12.7952 13.883 13.003 14.0003 13.17 14.1675L13.1953 14.1979C13.3263 14.2996 13.5341 14.2849 13.6506 14.1421L13.7419 14.0404L13.7244 14.0248ZM15.2003 12.8278C15.3265 12.9041 15.4585 12.863 15.509 12.7467L15.5498 12.6851C15.6411 12.5012 15.7576 12.3183 15.8838 12.1609L16.147 11.7688C16.1819 11.7688 16.1974 11.7433 16.2081 11.7179L16.5217 11.3004C16.6528 11.1732 16.8053 11.0813 16.9868 11.0813C17.1538 11.0813 17.3004 10.9894 17.3762 10.8212C17.4267 10.6373 17.5024 10.4643 17.6597 10.3225L17.7257 10.2462C17.8568 10.1142 17.984 10.0477 18.1151 9.98607C18.2821 9.96064 18.4384 9.93033 18.5957 9.93033H18.9802C19.1365 9.93033 19.2686 9.86872 19.3443 9.7367C19.42 9.60469 19.5366 9.51766 19.6676 9.45116L19.7987 9.39542C20.0065 9.30839 20.2386 9.24287 20.4716 9.21744L20.7299 9.19202C20.8862 9.19202 21.0532 9.19202 21.2105 9.27905C21.3367 9.37097 21.5086 9.36022 21.6358 9.25363L21.727 9.20278C21.9193 9.07076 22.1416 8.96808 22.3746 8.94265H22.3999C22.6582 8.8918 22.8902 8.8918 23.1534 8.90158H23.2796C23.5379 8.94266 23.7602 9.0336 23.9272 9.22722L23.968 9.27807C24.0991 9.41009 24.302 9.51766 24.4836 9.51766H24.7059C24.7719 9.51766 24.8321 9.48734 24.8729 9.42573C24.9137 9.38466 24.9787 9.34457 25.0399 9.34457H25.171C25.3535 9.34457 25.5196 9.39542 25.6866 9.45116L25.9089 9.54308C26.1167 9.60469 26.3342 9.67021 26.5565 9.69563H26.7129C26.8138 9.69563 26.8799 9.63403 26.8799 9.54308C26.8799 9.41107 26.8546 9.27807 26.7886 9.17637L26.6973 8.9671C26.5964 8.79891 26.5148 8.61604 26.4391 8.44784L26.4138 8.38135C26.3478 8.24933 26.3478 8.12123 26.4138 7.98921V7.92271C26.4391 7.82101 26.3886 7.70367 26.2827 7.66259H26.1818C25.974 7.5961 25.7924 7.47875 25.6613 7.31153L25.5351 7.17952C25.404 7.05239 25.3273 6.85388 25.272 6.66025C25.2108 6.49206 25.07 6.36004 24.8875 6.36004H24.3408C24.1486 6.33462 23.9767 6.22803 23.8602 6.0745L23.8097 6.008C23.7184 5.87599 23.6427 5.72246 23.5922 5.56502C23.5262 5.433 23.3844 5.35575 23.2534 5.39682L23.097 5.44767C22.8388 5.53959 22.5815 5.57479 22.3232 5.54937L22.1154 5.52394C21.8931 5.52394 21.6853 5.43202 21.5183 5.3049L21.3872 5.21297C21.2862 5.13181 21.1852 5.08096 21.0639 5.02913C20.9376 4.97828 20.8308 5.00371 20.7551 5.09563L20.6891 5.1719C20.5628 5.30392 20.3803 5.4066 20.1987 5.43202L19.5006 5.47309C19.3695 5.47309 19.2424 5.53959 19.1521 5.63053C19.0462 5.72246 18.9297 5.78309 18.7977 5.80851H18.7724C18.6462 5.80851 18.5141 5.90043 18.3879 5.99235V6.01778C18.2568 6.14979 18.0898 6.21629 17.918 6.21629L17.8675 6.24172C17.7112 6.24172 17.5587 6.24172 17.4024 6.28279H17.2461C17.0286 6.31799 16.8567 6.50184 16.8062 6.73653L16.7557 7.03674C16.715 7.24601 16.6247 7.42888 16.4975 7.59708C16.3664 7.75452 16.2091 7.85719 16.0168 7.85719H15.7994C15.6683 7.88751 15.5362 8.03028 15.5615 8.18283C15.5916 8.40677 15.5615 8.60039 15.5265 8.79891L15.476 9.01795C15.4207 9.21647 15.2935 9.36902 15.1216 9.43551L15.0459 9.47658H15.0206C14.9449 9.52744 14.8896 9.64478 14.9546 9.7367C15.0352 9.86872 15.0605 9.99682 15.0459 10.1288L15.0051 10.5464C15.0051 10.699 14.9439 10.8466 14.8789 10.9747C14.7983 11.1067 14.7983 11.2348 14.8536 11.3669L14.9799 11.6524C15.0459 11.7844 15.0605 11.9174 15.0206 12.07C14.9799 12.202 14.9546 12.3301 14.9702 12.4621C14.9702 12.5941 15.0459 12.7222 15.1527 12.7779L15.2003 12.8278ZM25.4264 22.2557C25.5574 22.3828 25.7497 22.4337 25.907 22.332L26.1653 22.1638C26.2963 22.0718 26.3983 21.9398 26.4488 21.7716V21.7462L26.5798 21.3541L26.6556 21.2221L26.7109 21.0949L26.7614 21.003C26.8119 20.8964 26.8876 20.8192 27.0197 20.7791L27.0702 20.7536C27.176 20.7282 27.242 20.6265 27.242 20.5189C27.242 20.3918 27.3032 20.2843 27.3683 20.1933L27.4741 20.1014L27.7324 19.765V19.7396C27.8081 19.633 27.8586 19.5156 27.8887 19.3826C27.9139 19.2555 27.8887 19.1225 27.8333 18.9954L27.8081 18.9397C27.7576 18.8125 27.7324 18.7206 27.7168 18.6033L27.6819 18.2365L27.6411 17.8444C27.6411 17.7173 27.6916 17.5843 27.7722 17.4572C27.8586 17.3506 27.9236 17.2176 27.98 17.0905V17.0396L28.0052 17.0142C28.0305 16.8822 27.9644 16.7492 27.8489 16.7492C27.7178 16.6876 27.5906 16.581 27.5508 16.4235L27.51 16.3473C27.4489 16.1126 27.409 15.8788 27.409 15.6442L27.4343 14.9919V14.9508C27.4343 14.7318 27.2517 14.5587 27.0449 14.5587H27.0197C26.7614 14.5587 26.5546 14.4824 26.3721 14.2986L26.2711 14.1666L26.008 13.8712L25.6739 13.4791C25.5429 13.2953 25.4157 13.1378 25.2438 12.9804C25.1176 12.8532 24.9205 12.7203 24.7282 12.6948L24.47 12.6538C24.3389 12.6283 24.1719 12.5667 24.0301 12.4758C23.9243 12.3946 23.7718 12.42 23.666 12.5266L23.499 12.7105L23.4184 12.7613C23.3272 12.7868 23.2417 12.7359 23.2009 12.6293C23.1504 12.4768 23.1504 12.2929 23.2262 12.1355V12.0592C23.2262 11.9673 23.1504 11.9018 23.0699 11.9272H22.8621C22.629 11.9272 22.397 11.9018 22.1795 11.8001L22.0484 11.7443C21.9173 11.6778 21.7649 11.6426 21.6231 11.6426C21.4921 11.6426 21.36 11.668 21.2338 11.7443L21.1833 11.7854C21.027 11.8871 20.8444 11.9428 20.6629 11.9536H20.2376C20.0405 11.9536 19.8482 12.0201 19.7171 12.1267C19.5501 12.2284 19.3686 12.2949 19.1763 12.3301L18.8278 12.3858C18.6714 12.421 18.5044 12.4875 18.3578 12.6049C18.2316 12.7369 18.0491 12.8141 17.882 12.865L17.816 12.8953C17.6082 12.9569 17.4267 13.0889 17.3004 13.2825L17.1441 13.44C17.0529 13.572 17.0529 13.7255 17.1441 13.8575C17.2199 13.9896 17.3772 14.0257 17.5335 13.9896L17.7257 13.9084C17.8267 13.8732 17.9481 13.9084 18.0345 13.9592C18.1151 14.0257 18.2316 14.0658 18.3481 14.0512L18.6714 14.016C18.854 14.016 19.0355 14.016 19.2123 14.0668C19.4094 14.1333 19.5764 14.1988 19.7327 14.3269C19.889 14.4589 20.056 14.5108 20.2483 14.5362C20.4454 14.5616 20.6376 14.6027 20.8202 14.6682L20.9464 14.6936C21.0775 14.7347 21.1843 14.8208 21.26 14.9538C21.326 15.0604 21.3862 15.2139 21.3862 15.3459V15.387C21.3862 15.5395 21.5173 15.6471 21.6493 15.6471H21.7251C21.9329 15.6471 22.1552 15.6725 22.3727 15.739L22.464 15.7742C22.5951 15.83 22.7222 15.9062 22.8125 16.0392C22.9184 16.1663 22.9796 16.2993 23.0203 16.4265L23.0611 16.6103C23.0961 16.8088 23.1116 17.0024 23.1116 17.2117V17.2782C23.1116 17.4053 23.2029 17.5383 23.3446 17.5892C23.4757 17.6146 23.6281 17.6703 23.7748 17.7466L23.8359 17.772C24.0078 17.8737 24.1748 18.0067 24.301 18.1642L24.367 18.2561C24.5389 18.4497 24.6253 18.6991 24.6253 18.9436V19.0355C24.6253 19.234 24.5904 19.4276 24.5243 19.6115C24.4739 19.7689 24.5243 19.9527 24.6913 20.0036L24.7826 20.0701C24.9797 20.1464 25.1467 20.2891 25.2729 20.4573C25.404 20.6559 25.4555 20.8749 25.4555 21.1096V21.5017C25.4302 21.6337 25.3943 21.7364 25.3293 21.8274C25.2642 21.9183 25.2632 22.0513 25.3293 22.1432L25.405 22.2704L25.4264 22.2557ZM17.1422 15.5786H17.1169C17.0616 15.5786 17.0363 15.6451 17.0509 15.7106L17.1014 15.9708C17.1519 16.18 17.1771 16.3883 17.2072 16.5976C17.2325 16.8069 17.3335 16.9848 17.4908 17.1169H17.5412C17.7383 17.2743 17.8549 17.509 17.8646 17.7437V18.3959C17.8393 18.5231 17.8646 18.6561 17.9452 18.7627L18.0063 18.8243C18.1374 18.9817 18.1889 19.1655 18.2034 19.3484L18.2384 20.0662C18.2384 20.2344 18.1374 20.3772 17.9801 20.4026L17.8539 20.428C17.7626 20.428 17.7228 20.5346 17.7228 20.6265C17.7228 20.7282 17.7636 20.8456 17.7985 20.9522V20.9776C17.8393 21.1047 17.8539 21.2377 17.8393 21.3697L17.7888 21.7208C17.7383 21.9809 17.6578 22.2146 17.5306 22.4493L17.4393 22.6067C17.3733 22.7339 17.283 22.816 17.1762 22.8669C17.0499 22.9177 16.9587 23.0243 16.9179 23.1524L16.8169 23.6208C16.7509 23.8858 16.6344 24.145 16.478 24.4051H16.4528C16.2965 24.6144 16.1042 24.7972 15.8712 24.9244L15.7149 25.0309L15.3255 25.2246C15.1993 25.2803 15.1177 25.3977 15.0925 25.5404L15.0313 25.9687C14.9905 26.2289 14.9003 26.4528 14.7177 26.621L14.5507 26.8195L14.3536 27.0131L14.1614 27.2224C14.005 27.4062 13.772 27.4825 13.5137 27.4463L13.0486 27.3544L12.6185 27.2987H12.502C12.4515 27.3544 12.4408 27.4307 12.4768 27.5079C12.568 27.6654 12.7098 27.773 12.8661 27.773L13.1496 27.8238C13.2807 27.8238 13.438 27.8903 13.5642 27.9509C13.6953 28.0429 13.8225 28.1084 13.9788 28.1494H14.0041C14.1759 28.2159 14.3526 28.2257 14.5245 28.2159L14.7167 28.1856C14.9391 28.1602 15.1469 28.1856 15.3236 28.2668L15.4799 28.3176C15.5459 28.3431 15.6469 28.3176 15.7129 28.2511C15.7935 28.1749 15.8693 28.124 15.9712 28.0829L16.077 28.0575C16.244 28.0067 16.4111 27.9764 16.5926 27.9764H16.6985C16.8499 27.9764 16.9965 28.0067 17.1237 28.0829L17.1742 28.1084C17.2655 28.1494 17.3713 28.1084 17.4374 28.0321C17.4723 27.9402 17.5636 27.8483 17.6548 27.772L17.9782 27.548L18.186 27.416L18.2918 27.3544C18.418 27.2625 18.6006 27.2224 18.7569 27.2224L19.222 27.1813C19.4045 27.1559 19.5608 27.0288 19.6113 26.8449C19.6618 26.6464 19.7375 26.4528 19.8696 26.2846C20.0007 26.1115 20.1279 25.9687 20.2589 25.8416C20.4259 25.7096 20.5929 25.6431 20.7745 25.6323H20.8804C21.0881 25.5913 21.2396 25.3977 21.2289 25.1894V24.3132C21.2542 24.186 21.3047 24.013 21.3804 23.8849L21.6435 23.4927L21.7445 23.3607C21.8251 23.2942 21.8756 23.2082 21.9668 23.1006L22.0931 22.9324C22.1737 22.8004 22.1737 22.6322 22.0678 22.5148C21.9416 22.3828 21.8756 22.199 21.8503 22.021V21.9653C21.8251 21.756 21.8251 21.5369 21.8853 21.313V21.2514C21.9513 21.0783 22.0416 20.9101 22.1484 20.7527C22.2494 20.6255 22.2348 20.4417 22.1076 20.3351L21.8853 20.1415C21.7027 19.984 21.6018 19.7493 21.5765 19.5147L21.5513 19.2545C21.5513 19.1734 21.5513 19.0863 21.526 18.9944L21.5008 18.7959C21.4707 18.5769 21.3445 18.4038 21.1619 18.2766L21.0707 18.2512C20.9396 18.17 20.8124 18.0527 20.7066 17.9002C20.6056 17.7681 20.5551 17.5843 20.5143 17.4014L20.4735 17.1824C20.4735 17.1012 20.423 17.0504 20.3473 17.0142L19.7249 16.8157C19.5938 16.7902 19.4666 16.6885 19.3763 16.5966H19.3511C19.2705 16.49 19.1433 16.49 19.0627 16.5663L18.9365 16.6983C18.9113 16.7394 18.8812 16.7492 18.8452 16.7394C18.7646 16.7394 18.7142 16.6729 18.7394 16.6074C18.7646 16.3981 18.6889 16.1898 18.5219 16.0627L18.35 15.9307L17.9655 15.6706C17.8597 15.6295 17.7024 15.6706 17.6519 15.7977L17.6014 15.8788C17.6014 15.9043 17.5607 15.9141 17.551 15.9297C17.4956 15.9297 17.4199 15.9297 17.4199 15.8632L17.3791 15.7967C17.3441 15.7204 17.2529 15.6696 17.1713 15.6442L17.1422 15.5786ZM15.5896 16.8822L15.5236 16.8157C15.4576 16.7648 15.3925 16.7746 15.3265 16.8411C15.2352 16.9985 15.1595 17.1667 15.1187 17.3398V17.3652C15.0838 17.5334 14.9265 17.6508 14.7701 17.6254H14.6187C14.4361 17.6254 14.2953 17.7828 14.2953 17.9618C14.2953 18.1965 14.2148 18.4351 14.073 18.614L13.9973 18.6952C13.8662 18.8634 13.6739 18.9807 13.4768 19.0462L13.3759 19.0717C13.2448 19.1127 13.1428 19.2037 13.1176 19.3572C13.1176 19.4892 13.037 19.6222 12.935 19.7239L12.804 19.8256C12.6476 19.9987 12.4146 20.0906 12.1816 20.1161L11.534 20.1826C11.3262 20.1826 11.1495 20.3097 11.0184 20.5082C10.8873 20.7018 10.6951 20.8338 10.5028 20.8593L10.2144 20.8847C10.0066 20.9101 9.78915 20.9101 9.5668 20.8593L9.44058 20.8338L9.08618 20.7419C8.95996 20.7008 8.85315 20.7419 8.77742 20.8338L8.64634 21.002C8.47933 21.1956 8.2366 21.2876 7.99871 21.2621L7.15884 21.1604C7.02776 21.1604 6.92581 21.0939 6.81027 21.0284C6.67919 20.9522 6.58792 20.8602 6.49665 20.7683L6.17332 20.3762C6.13837 20.3507 6.07234 20.3351 6.00632 20.3507L5.82378 20.427L5.10042 20.6109C4.96934 20.6519 4.80234 20.6109 4.67514 20.5346C4.54406 20.428 4.38677 20.4026 4.23044 20.4026H4.06344C3.90712 20.4436 3.80517 20.6118 3.85566 20.7693L3.90615 21.0294C3.94693 21.1614 3.93624 21.315 3.87119 21.447C3.80614 21.579 3.8207 21.7071 3.90615 21.8391L3.98673 21.9408C4.08771 22.0982 4.24501 22.2312 4.37609 22.3584C4.50231 22.4904 4.63436 22.6185 4.73534 22.7916L4.93244 23.1426C5.03342 23.3265 5.19072 23.4282 5.39753 23.4282C5.58978 23.4282 5.78688 23.4947 5.93835 23.6218L6.3277 23.9885C6.43354 24.0804 6.58598 24.0951 6.69181 24.0139L6.75784 23.9885C6.83357 23.9885 6.88406 24.0394 6.88406 24.1205V24.187C6.88406 24.3552 7.01514 24.5127 7.18214 24.5743L7.76374 24.7063C7.97153 24.7728 8.17834 24.8383 8.37544 24.9664H8.47642C8.58226 24.9664 8.67353 24.8745 8.65896 24.7571V24.3034C8.65896 24.1714 8.70945 24.0384 8.81528 23.9875L8.88131 23.9621C8.94248 23.9875 9.00753 24.0384 8.98229 24.0941V24.3132C8.98229 24.4814 9.03278 24.6388 9.14929 24.7562C9.28037 24.8882 9.44738 24.9136 9.58914 24.8627C9.74546 24.7962 9.90275 24.7816 10.0698 24.7962L10.5504 24.8217C10.7834 24.8471 11.0009 24.8217 11.198 24.7298C11.431 24.6535 11.6233 24.5459 11.8049 24.4041L11.8806 24.3533L12.2699 24.0022C12.401 23.8702 12.568 23.8037 12.7253 23.8037H13.2409C13.4992 23.7783 13.7361 23.5436 13.7613 23.2844L13.8118 23.0243C13.8118 22.8512 13.8875 22.6987 14.0041 22.5657C14.1351 22.4337 14.2623 22.3564 14.3934 22.3056L14.5497 22.2391C14.7672 22.1471 14.9391 21.9535 15.0148 21.7198L15.0906 21.4039C15.1566 21.1438 15.2877 20.8847 15.4799 20.7165L15.5052 20.6862C15.6615 20.559 15.6877 20.2989 15.5857 20.1161L15.545 20.0241C15.4537 19.8921 15.4391 19.6985 15.5042 19.5303C15.5702 19.3465 15.6353 19.189 15.7372 19.0316L15.8683 18.8477C15.9188 18.746 15.9188 18.5876 15.843 18.4967C15.7625 18.395 15.712 18.262 15.712 18.1348L15.6867 17.951V17.508C15.712 17.376 15.6867 17.2078 15.6459 17.0748L15.5955 16.9223L15.5896 16.8822ZM13.739 15.8886V15.8534C13.739 15.7214 13.6584 15.6442 13.5565 15.6442H13.2176C13.0914 15.6696 12.9593 15.6696 12.8535 15.6442H12.2719C11.9738 15.6442 11.6903 15.5884 11.4068 15.5121L11.0931 15.4359L10.8349 15.3547L10.2533 15.1611C9.93965 15.0692 9.70662 14.8609 9.56583 14.5753L9.49981 14.4433C9.40854 14.2497 9.21629 14.1431 9.02404 14.1832C8.80169 14.1832 8.5842 14.1832 8.37641 14.0815L8.22009 14.015C7.92201 13.883 7.70451 13.6228 7.70451 13.2718L7.64917 12.9207C7.61422 12.7369 7.4977 12.5697 7.34041 12.5032C7.15787 12.422 6.99184 12.3193 6.81998 12.2029L6.75881 12.1619C6.5617 12.0044 6.3947 11.8001 6.30343 11.5507L6.27818 11.4744C6.21216 11.2652 6.20245 11.0412 6.25294 10.8222L6.27818 10.741C6.32867 10.5728 6.34421 10.4046 6.34421 10.2217C6.34421 10.0643 6.27818 9.90588 6.16167 9.78853L5.97913 9.62034C5.77135 9.45214 5.64512 9.20278 5.63056 8.92799C5.60531 8.64244 5.60531 8.36765 5.6558 8.09287V8.01659C5.6558 7.85915 5.52472 7.75647 5.39753 7.75647H5.35675C5.18975 7.75647 5.04799 7.85817 4.9674 8.01659C4.90623 8.20043 4.80039 8.34223 4.68388 8.485L4.63339 8.5515L4.24404 8.94363C4.11296 9.07076 4.03625 9.26927 4.01101 9.46289C3.98576 9.66141 3.93527 9.85503 3.85468 10.0389L3.82944 10.1054C3.76341 10.2579 3.66244 10.4056 3.53136 10.4975C3.40513 10.5992 3.31386 10.7576 3.31386 10.9102L3.28862 11.5116C3.28862 11.7717 3.24784 12.0357 3.15754 12.2958L3.1323 12.3975C3.06627 12.5706 3.1323 12.7486 3.28862 12.8308L3.82944 13.0655L3.87993 13.0909C3.92071 13.0909 3.93527 13.1163 3.94595 13.1574C3.98673 13.2082 3.94595 13.2845 3.90517 13.2845L3.77895 13.351C3.70322 13.3764 3.64787 13.4576 3.62263 13.5495L3.59738 13.6766V13.7021L3.4663 14.4355C3.44106 14.5372 3.44106 14.6545 3.44106 14.7719C3.44106 14.8785 3.50708 14.9704 3.59738 15.0066L3.8809 15.1386C4.01198 15.2149 4.16927 15.3068 4.27025 15.3987L4.40133 15.5053C4.43629 15.5561 4.50231 15.607 4.5528 15.6324L4.60814 15.6833C4.69941 15.7644 4.75961 15.8671 4.79068 15.9835L4.91691 16.5692C4.91691 16.7267 5.04799 16.8597 5.17518 16.8949L5.38297 16.9614C5.38297 16.9614 5.42375 16.9614 5.44899 16.9868L5.70726 17.068C5.91505 17.1345 6.09662 17.2518 6.25391 17.4044C6.41023 17.5364 6.56267 17.7046 6.69375 17.8884L6.74424 17.9393C6.85008 18.0713 7.00252 18.1378 7.15884 18.0967C7.31516 18.0556 7.48217 18.0459 7.64917 18.0459H7.84627C7.9725 18.0459 8.14436 18.0811 8.28612 18.173C8.41234 18.2541 8.5842 18.305 8.73664 18.3715H8.77742C8.93374 18.438 9.10075 18.4067 9.23279 18.3206C9.35902 18.2141 9.53088 18.1632 9.69788 18.1632L10.3047 18.1984C10.4358 18.1984 10.563 18.173 10.6281 18.0713H10.6533L10.8756 17.862L10.9417 17.7955C11.0427 17.6684 11.1999 17.6117 11.3514 17.6019H11.9379C12.0893 17.6019 12.236 17.4699 12.2971 17.3418C12.3631 17.2098 12.4942 17.1022 12.6457 17.0768L12.9088 17.0259C13.0098 17.0259 13.1011 16.934 13.1419 16.8166C13.1768 16.6895 13.2428 16.582 13.3341 16.5057L13.5419 16.2964C13.673 16.1644 13.739 16.0363 13.7642 15.8788L13.739 15.8886Z" fill="#DEDEDE"/>
</svg>
