<svg width="32" height="32" viewBox="0 0 32 32" fill="none" xmlns="http://www.w3.org/2000/svg">
<path d="M22.25 6.1H17.255L11.99 10.933L9.479 13.228L6.698 15.766V6.1H3.323V25H6.698V20.329L11.477 15.982L18.011 25H22.169L13.988 13.687L22.25 6.1ZM28.3197 25.189V21.814H24.9447V25.189H28.3197Z" fill="#DEDEDE"/>
<path d="M22.25 6.1L22.3853 6.24731L22.7635 5.9H22.25V6.1ZM17.255 6.1V5.9H17.1771L17.1198 5.95266L17.255 6.1ZM11.99 10.933L12.1249 11.0806L12.1252 11.0803L11.99 10.933ZM9.479 13.228L9.61382 13.3757L9.61393 13.3756L9.479 13.228ZM6.698 15.766H6.498V16.2193L6.83282 15.9137L6.698 15.766ZM6.698 6.1H6.898V5.9H6.698V6.1ZM3.323 6.1V5.9H3.123V6.1H3.323ZM3.323 25H3.123V25.2H3.323V25ZM6.698 25V25.2H6.898V25H6.698ZM6.698 20.329L6.56342 20.181L6.498 20.2406V20.329H6.698ZM11.477 15.982L11.639 15.8647L11.5078 15.6836L11.3424 15.834L11.477 15.982ZM18.011 25L17.849 25.1173L17.9089 25.2H18.011V25ZM22.169 25V25.2H22.5604L22.3311 24.8828L22.169 25ZM13.988 13.687L13.8527 13.5397L13.7217 13.66L13.8259 13.8042L13.988 13.687ZM22.25 5.9H17.255V6.3H22.25V5.9ZM17.1198 5.95266L11.8548 10.7857L12.1252 11.0803L17.3902 6.24734L17.1198 5.95266ZM11.8551 10.7854L9.34407 13.0804L9.61393 13.3756L12.1249 11.0806L11.8551 10.7854ZM9.34418 13.0803L6.56318 15.6183L6.83282 15.9137L9.61382 13.3757L9.34418 13.0803ZM6.898 15.766V6.1H6.498V15.766H6.898ZM6.698 5.9H3.323V6.3H6.698V5.9ZM3.123 6.1V25H3.523V6.1H3.123ZM3.323 25.2H6.698V24.8H3.323V25.2ZM6.898 25V20.329H6.498V25H6.898ZM6.83258 20.4769L11.6116 16.1299L11.3424 15.834L6.56342 20.181L6.83258 20.4769ZM11.315 16.0993L17.849 25.1173L18.173 24.8827L11.639 15.8647L11.315 16.0993ZM18.011 25.2H22.169V24.8H18.011V25.2ZM22.3311 24.8828L14.1501 13.5698L13.8259 13.8042L22.0069 25.1172L22.3311 24.8828ZM14.1233 13.8343L22.3853 6.24731L22.1147 5.95269L13.8527 13.5397L14.1233 13.8343ZM28.3197 25.189V25.389H28.5197V25.189H28.3197ZM28.3197 21.814H28.5197V21.614H28.3197V21.814ZM24.9447 21.814V21.614H24.7447V21.814H24.9447ZM24.9447 25.189H24.7447V25.389H24.9447V25.189ZM28.5197 25.189V21.814H28.1197V25.189H28.5197ZM28.3197 21.614H24.9447V22.014H28.3197V21.614ZM24.7447 21.814V25.189H25.1447V21.814H24.7447ZM24.9447 25.389H28.3197V24.989H24.9447V25.389Z" fill="#1C1C1C"/>
</svg>
